<mxfile host="app.diagrams.net" modified="2024-02-14T08:49:47.707Z" agent="Mozilla/5.0 (Windows NT 10.0; Win64; x64) AppleWebKit/537.36 (KHTML, like Gecko) Chrome/121.0.0.0 Safari/537.36" etag="vPN8GcygQ3sGRqIqRS9b" version="23.1.4" type="google">
  <diagram name="Страница — 1" id="SaYhMYd42-iGmTKAq2ND">
    <mxGraphModel grid="1" page="1" gridSize="10" guides="1" tooltips="1" connect="1" arrows="1" fold="1" pageScale="1" pageWidth="827" pageHeight="1169" math="0" shadow="0">
      <root>
        <mxCell id="0" />
        <mxCell id="1" parent="0" />
        <mxCell id="fkJjHFtPepgIVGqlWBvO-1" style="edgeStyle=none;html=1;entryX=0.5;entryY=0;entryDx=0;entryDy=0;" edge="1" parent="1" source="fkJjHFtPepgIVGqlWBvO-2" target="fkJjHFtPepgIVGqlWBvO-4">
          <mxGeometry relative="1" as="geometry" />
        </mxCell>
        <mxCell id="fkJjHFtPepgIVGqlWBvO-2" value="Начало" style="ellipse;whiteSpace=wrap;html=1;" vertex="1" parent="1">
          <mxGeometry x="354" y="30" width="120" height="80" as="geometry" />
        </mxCell>
        <mxCell id="fkJjHFtPepgIVGqlWBvO-3" style="edgeStyle=none;html=1;entryX=0.5;entryY=0;entryDx=0;entryDy=0;" edge="1" parent="1" source="fkJjHFtPepgIVGqlWBvO-4" target="fkJjHFtPepgIVGqlWBvO-6">
          <mxGeometry relative="1" as="geometry" />
        </mxCell>
        <mxCell id="fkJjHFtPepgIVGqlWBvO-4" value="Введите длину&lt;br&gt;массива n" style="shape=parallelogram;perimeter=parallelogramPerimeter;whiteSpace=wrap;html=1;fixedSize=1;" vertex="1" parent="1">
          <mxGeometry x="354" y="150" width="120" height="60" as="geometry" />
        </mxCell>
        <mxCell id="fkJjHFtPepgIVGqlWBvO-5" style="edgeStyle=none;html=1;entryX=0.5;entryY=0;entryDx=0;entryDy=0;" edge="1" parent="1" source="fkJjHFtPepgIVGqlWBvO-6" target="fkJjHFtPepgIVGqlWBvO-9">
          <mxGeometry relative="1" as="geometry" />
        </mxCell>
        <mxCell id="fkJjHFtPepgIVGqlWBvO-6" value="Введите n строк&lt;br&gt;через Enter" style="shape=parallelogram;perimeter=parallelogramPerimeter;whiteSpace=wrap;html=1;fixedSize=1;" vertex="1" parent="1">
          <mxGeometry x="354" y="240" width="120" height="60" as="geometry" />
        </mxCell>
        <mxCell id="fkJjHFtPepgIVGqlWBvO-7" style="edgeStyle=none;html=1;entryX=0.5;entryY=0;entryDx=0;entryDy=0;" edge="1" parent="1" source="fkJjHFtPepgIVGqlWBvO-9" target="fkJjHFtPepgIVGqlWBvO-11">
          <mxGeometry relative="1" as="geometry" />
        </mxCell>
        <mxCell id="fkJjHFtPepgIVGqlWBvO-8" style="edgeStyle=none;html=1;entryX=1;entryY=0.5;entryDx=0;entryDy=0;" edge="1" parent="1" source="fkJjHFtPepgIVGqlWBvO-9" target="fkJjHFtPepgIVGqlWBvO-13">
          <mxGeometry relative="1" as="geometry">
            <Array as="points">
              <mxPoint x="610" y="390" />
              <mxPoint x="610" y="630" />
            </Array>
          </mxGeometry>
        </mxCell>
        <mxCell id="fkJjHFtPepgIVGqlWBvO-9" value="int i = 0; i &amp;lt; strArray.Length; i ++" style="shape=hexagon;perimeter=hexagonPerimeter2;whiteSpace=wrap;html=1;fixedSize=1;" vertex="1" parent="1">
          <mxGeometry x="306" y="350" width="216" height="80" as="geometry" />
        </mxCell>
        <mxCell id="fkJjHFtPepgIVGqlWBvO-10" style="edgeStyle=none;html=1;entryX=0;entryY=0.5;entryDx=0;entryDy=0;" edge="1" parent="1" source="fkJjHFtPepgIVGqlWBvO-11" target="fkJjHFtPepgIVGqlWBvO-9">
          <mxGeometry relative="1" as="geometry">
            <Array as="points">
              <mxPoint x="260" y="510" />
              <mxPoint x="260" y="390" />
            </Array>
          </mxGeometry>
        </mxCell>
        <mxCell id="fkJjHFtPepgIVGqlWBvO-11" value="strArray[i] = Console.ReadLine();" style="rounded=0;whiteSpace=wrap;html=1;" vertex="1" parent="1">
          <mxGeometry x="312" y="480" width="204" height="60" as="geometry" />
        </mxCell>
        <mxCell id="fkJjHFtPepgIVGqlWBvO-12" style="edgeStyle=none;html=1;" edge="1" parent="1" source="fkJjHFtPepgIVGqlWBvO-13">
          <mxGeometry relative="1" as="geometry">
            <mxPoint x="414" y="730" as="targetPoint" />
          </mxGeometry>
        </mxCell>
        <mxCell id="fkJjHFtPepgIVGqlWBvO-13" value="Вывод массива" style="shape=document;whiteSpace=wrap;html=1;boundedLbl=1;" vertex="1" parent="1">
          <mxGeometry x="354" y="590" width="120" height="80" as="geometry" />
        </mxCell>
        <mxCell id="fkJjHFtPepgIVGqlWBvO-14" style="edgeStyle=none;html=1;exitX=0.5;exitY=1;exitDx=0;exitDy=0;entryX=0.5;entryY=0;entryDx=0;entryDy=0;" edge="1" parent="1" source="fkJjHFtPepgIVGqlWBvO-15" target="fkJjHFtPepgIVGqlWBvO-18">
          <mxGeometry relative="1" as="geometry" />
        </mxCell>
        <mxCell id="fkJjHFtPepgIVGqlWBvO-15" value="int i = 0; i &amp;lt; strArray.Length; i ++" style="shape=hexagon;perimeter=hexagonPerimeter2;whiteSpace=wrap;html=1;fixedSize=1;" vertex="1" parent="1">
          <mxGeometry x="306" y="730" width="216" height="80" as="geometry" />
        </mxCell>
        <mxCell id="fkJjHFtPepgIVGqlWBvO-16" style="edgeStyle=none;html=1;entryX=0;entryY=0.5;entryDx=0;entryDy=0;" edge="1" parent="1" source="fkJjHFtPepgIVGqlWBvO-18" target="fkJjHFtPepgIVGqlWBvO-15">
          <mxGeometry relative="1" as="geometry">
            <Array as="points">
              <mxPoint x="240" y="900" />
              <mxPoint x="240" y="770" />
            </Array>
          </mxGeometry>
        </mxCell>
        <mxCell id="fkJjHFtPepgIVGqlWBvO-17" style="edgeStyle=none;html=1;entryX=0.5;entryY=0;entryDx=0;entryDy=0;" edge="1" parent="1" source="fkJjHFtPepgIVGqlWBvO-18" target="fkJjHFtPepgIVGqlWBvO-20">
          <mxGeometry relative="1" as="geometry">
            <Array as="points">
              <mxPoint x="600" y="900" />
            </Array>
          </mxGeometry>
        </mxCell>
        <mxCell id="fkJjHFtPepgIVGqlWBvO-18" value="strArray[i].Length &amp;lt;= 3" style="rhombus;whiteSpace=wrap;html=1;" vertex="1" parent="1">
          <mxGeometry x="317" y="860" width="194" height="80" as="geometry" />
        </mxCell>
        <mxCell id="fkJjHFtPepgIVGqlWBvO-19" value="Нет" style="text;html=1;align=center;verticalAlign=middle;resizable=0;points=[];autosize=1;strokeColor=none;fillColor=none;" vertex="1" parent="1">
          <mxGeometry x="266" y="870" width="40" height="30" as="geometry" />
        </mxCell>
        <mxCell id="fkJjHFtPepgIVGqlWBvO-20" value="Вывод отсортированного&lt;br&gt;массива" style="shape=document;whiteSpace=wrap;html=1;boundedLbl=1;" vertex="1" parent="1">
          <mxGeometry x="516" y="980" width="170" height="80" as="geometry" />
        </mxCell>
        <mxCell id="fkJjHFtPepgIVGqlWBvO-21" value="Да" style="text;html=1;align=center;verticalAlign=middle;resizable=0;points=[];autosize=1;strokeColor=none;fillColor=none;" vertex="1" parent="1">
          <mxGeometry x="522" y="870" width="40" height="30" as="geometry" />
        </mxCell>
      </root>
    </mxGraphModel>
  </diagram>
</mxfile>
